<?xml version="1.0" encoding="UTF-8" standalone="no"?>
<!DOCTYPE svg PUBLIC "-//W3C//DTD SVG 1.1//EN"
 "http://www.w3.org/Graphics/SVG/1.1/DTD/svg11.dtd">
<!-- Generated by graphviz version 2.26.3 (20100126.1600)
 -->
<!-- Title: structs Pages: 1 -->
<svg width="572pt" height="170pt"
 viewBox="0.00 0.00 572.00 170.00" xmlns="http://www.w3.org/2000/svg" xmlns:xlink="http://www.w3.org/1999/xlink">
<g id="graph1" class="graph" transform="scale(1 1) rotate(0) translate(4 166)">
<title>structs</title>
<polygon fill="white" stroke="white" points="-4,5 -4,-166 569,-166 569,5 -4,5"/>
<!-- EC -->
<g id="node1" class="node"><title>EC</title>
<polygon fill="none" stroke="red" points="362,-72 362,-108 416,-108 416,-72 362,-72"/>
<text text-anchor="middle" x="389" y="-85.9" font-family="Times Roman,serif" font-size="14.00">EC</text>
</g>
<!-- Battery -->
<g id="node11" class="node"><title>Battery</title>
<polygon fill="none" stroke="black" points="485.5,-126 485.5,-162 554.5,-162 554.5,-126 485.5,-126"/>
<text text-anchor="middle" x="520" y="-139.9" font-family="Times Roman,serif" font-size="14.00">Battery</text>
</g>
<!-- EC&#45;&#45;Battery -->
<g id="edge10" class="edge"><title>EC&#45;&#45;Battery</title>
<path fill="none" stroke="black" d="M416.143,-101.189C436.228,-109.468 463.742,-120.81 485.405,-129.739"/>
<text text-anchor="middle" x="446" y="-121.4" font-family="Times Roman,serif" font-size="14.00">I2C</text>
</g>
<!-- Keyboard -->
<g id="node13" class="node"><title>Keyboard</title>
<polygon fill="none" stroke="black" points="480,-72 480,-108 560,-108 560,-72 480,-72"/>
<text text-anchor="middle" x="520" y="-85.9" font-family="Times Roman,serif" font-size="14.00">Keyboard</text>
</g>
<!-- EC&#45;&#45;Keyboard -->
<g id="edge12" class="edge"><title>EC&#45;&#45;Keyboard</title>
<path fill="none" stroke="black" d="M416.143,-90C434.579,-90 459.275,-90 479.959,-90"/>
</g>
<!-- Trackpoint -->
<g id="node15" class="node"><title>Trackpoint</title>
<polygon fill="none" stroke="black" points="476,-18 476,-54 564,-54 564,-18 476,-18"/>
<text text-anchor="middle" x="520" y="-31.9" font-family="Times Roman,serif" font-size="14.00">Trackpoint</text>
</g>
<!-- EC&#45;&#45;Trackpoint -->
<g id="edge14" class="edge"><title>EC&#45;&#45;Trackpoint</title>
<path fill="none" stroke="black" d="M416.143,-78.8112C433.455,-71.675 456.286,-62.2636 476.133,-54.0827"/>
</g>
<!-- CPU -->
<g id="node2" class="node"><title>CPU</title>
<polygon fill="none" stroke="black" points="0,-72 0,-108 54,-108 54,-72 0,-72"/>
<text text-anchor="middle" x="27" y="-85.9" font-family="Times Roman,serif" font-size="14.00">CPU</text>
</g>
<!-- RAM -->
<g id="node4" class="node"><title>RAM</title>
<polygon fill="none" stroke="black" points="0,-0 0,-36 54,-36 54,-0 0,-0"/>
<text text-anchor="middle" x="27" y="-13.9" font-family="Times Roman,serif" font-size="14.00">RAM</text>
</g>
<!-- CPU&#45;&#45;RAM -->
<g id="edge2" class="edge"><title>CPU&#45;&#45;RAM</title>
<path fill="none" stroke="black" d="M27,-71.9539C27,-60.063 27,-48.1721 27,-36.2812"/>
</g>
<!-- Southbridge -->
<g id="node6" class="node"><title>Southbridge</title>
<polygon fill="none" stroke="black" points="196.5,-72 196.5,-108 297.5,-108 297.5,-72 196.5,-72"/>
<text text-anchor="middle" x="247" y="-85.9" font-family="Times Roman,serif" font-size="14.00">Southbridge</text>
</g>
<!-- CPU&#45;&#45;Southbridge -->
<g id="edge4" class="edge"><title>CPU&#45;&#45;Southbridge</title>
<path fill="none" stroke="black" d="M54.4183,-90C89.7802,-90 151.975,-90 196.11,-90"/>
<text text-anchor="middle" x="125" y="-94.4" font-family="Times Roman,serif" font-size="14.00">High speed bus</text>
</g>
<!-- Southbridge&#45;&#45;EC -->
<g id="edge6" class="edge"><title>Southbridge&#45;&#45;EC</title>
<path fill="none" stroke="black" d="M297.864,-90C319.51,-90 343.878,-90 361.967,-90"/>
<text text-anchor="middle" x="330" y="-94.4" font-family="Times Roman,serif" font-size="14.00">LPC</text>
</g>
<!-- SSD -->
<g id="node9" class="node"><title>SSD</title>
<polygon fill="none" stroke="black" points="220,-0 220,-36 274,-36 274,-0 220,-0"/>
<text text-anchor="middle" x="247" y="-13.9" font-family="Times Roman,serif" font-size="14.00">SSD</text>
</g>
<!-- Southbridge&#45;&#45;SSD -->
<g id="edge8" class="edge"><title>Southbridge&#45;&#45;SSD</title>
<path fill="none" stroke="black" d="M247,-36.4133C247,-47.2876 247,-61 247,-71.8314"/>
<text text-anchor="middle" x="265.5" y="-49.9" font-family="Times Roman,serif" font-size="14.00">SATA</text>
</g>
</g>
</svg>
