<?xml version="1.0" encoding="UTF-8" standalone="no"?>
<!DOCTYPE svg PUBLIC "-//W3C//DTD SVG 1.1//EN"
 "http://www.w3.org/Graphics/SVG/1.1/DTD/svg11.dtd">
<!-- Generated by graphviz version 2.26.3 (20100126.1600)
 -->
<!-- Title: structs Pages: 1 -->
<svg width="590pt" height="421pt"
 viewBox="0.00 0.00 590.00 421.00" xmlns="http://www.w3.org/2000/svg" xmlns:xlink="http://www.w3.org/1999/xlink">
<g id="graph1" class="graph" transform="scale(1 1) rotate(0) translate(4 417)">
<title>structs</title>
<polygon fill="white" stroke="white" points="-4,5 -4,-417 587,-417 587,5 -4,5"/>
<!-- table_00021510 -->
<g id="node1" class="node"><title>table_00021510</title>
<polygon fill="none" stroke="black" points="0,-245 0,-395 132,-395 132,-245 0,-245"/>
<text text-anchor="middle" x="66" y="-378.4" font-family="Times Roman,serif" font-size="14.00">table.00021510:</text>
<polyline fill="none" stroke="black" points="0,-370 132,-370 "/>
<text text-anchor="middle" x="66" y="-353.4" font-family="Times Roman,serif" font-size="14.00">...</text>
<polyline fill="none" stroke="black" points="0,-345 132,-345 "/>
<text text-anchor="middle" x="66" y="-328.4" font-family="Times Roman,serif" font-size="14.00">fn_key_complex</text>
<polyline fill="none" stroke="black" points="0,-320 132,-320 "/>
<text text-anchor="middle" x="66" y="-303.4" font-family="Times Roman,serif" font-size="14.00">numpad</text>
<polyline fill="none" stroke="black" points="0,-295 132,-295 "/>
<text text-anchor="middle" x="66" y="-278.4" font-family="Times Roman,serif" font-size="14.00">keysym_stuff</text>
<polyline fill="none" stroke="black" points="0,-270 132,-270 "/>
<text text-anchor="middle" x="66" y="-253.4" font-family="Times Roman,serif" font-size="14.00">...</text>
</g>
<!-- table_ptr_fn_key_complex_stuff -->
<g id="node2" class="node"><title>table_ptr_fn_key_complex_stuff</title>
<polygon fill="none" stroke="black" points="168.5,-337.5 168.5,-412.5 395.5,-412.5 395.5,-337.5 168.5,-337.5"/>
<text text-anchor="middle" x="282" y="-395.9" font-family="Times Roman,serif" font-size="14.00">fn_key_complex:</text>
<polyline fill="none" stroke="black" points="168.5,-387.5 395.5,-387.5 "/>
<text text-anchor="middle" x="190" y="-370.9" font-family="Times Roman,serif" font-size="14.00">0x8</text>
<polyline fill="none" stroke="black" points="211.5,-362.5 211.5,-387.5 "/>
<text text-anchor="middle" x="303.5" y="-370.9" font-family="Times Roman,serif" font-size="14.00">jump_table.0x0002164c</text>
<polyline fill="none" stroke="black" points="168.5,-362.5 395.5,-362.5 "/>
<text text-anchor="middle" x="211" y="-345.9" font-family="Times Roman,serif" font-size="14.00">0x1b</text>
<polyline fill="none" stroke="black" points="253.5,-337.5 253.5,-362.5 "/>
<text text-anchor="middle" x="324.5" y="-345.9" font-family="Times Roman,serif" font-size="14.00">fn_key_map1</text>
</g>
<!-- table_00021510&#45;&gt;table_ptr_fn_key_complex_stuff -->
<g id="edge4" class="edge"><title>table_00021510:p1&#45;&gt;table_ptr_fn_key_complex_stuff:p0</title>
<path fill="none" stroke="black" d="M132,-333C161.579,-333 141.076,-384.297 158.134,-397.121"/>
<polygon fill="black" stroke="black" points="157.42,-400.559 168,-400 159.381,-393.839 157.42,-400.559"/>
</g>
<!-- table_numpad -->
<g id="node3" class="node"><title>table_numpad</title>
<polygon fill="none" stroke="black" points="193,-169 193,-319 371,-319 371,-169 193,-169"/>
<text text-anchor="middle" x="282" y="-302.4" font-family="Times Roman,serif" font-size="14.00">numpad?</text>
<polyline fill="none" stroke="black" points="193,-294 371,-294 "/>
<text text-anchor="middle" x="218.5" y="-277.4" font-family="Times Roman,serif" font-size="14.00">0xb2</text>
<polyline fill="none" stroke="black" points="244,-269 244,-294 "/>
<text text-anchor="middle" x="307.5" y="-277.4" font-family="Times Roman,serif" font-size="14.00">table.000216b4</text>
<polyline fill="none" stroke="black" points="193,-269 371,-269 "/>
<text text-anchor="middle" x="282" y="-252.4" font-family="Times Roman,serif" font-size="14.00">0x40</text>
<polyline fill="none" stroke="black" points="193,-244 371,-244 "/>
<text text-anchor="middle" x="282" y="-227.4" font-family="Times Roman,serif" font-size="14.00">table_numpad2</text>
<polyline fill="none" stroke="black" points="193,-219 371,-219 "/>
<text text-anchor="middle" x="282" y="-202.4" font-family="Times Roman,serif" font-size="14.00">table_numpad1</text>
<polyline fill="none" stroke="black" points="193,-194 371,-194 "/>
<text text-anchor="middle" x="220.5" y="-177.4" font-family="Times Roman,serif" font-size="14.00">0xb</text>
<polyline fill="none" stroke="black" points="248,-169 248,-194 "/>
<text text-anchor="middle" x="309.5" y="-177.4" font-family="Times Roman,serif" font-size="14.00">replacements</text>
</g>
<!-- table_00021510&#45;&gt;table_numpad -->
<g id="edge6" class="edge"><title>table_00021510:p2&#45;&gt;table_numpad:p0</title>
<path fill="none" stroke="black" d="M132,-307C155.405,-307 163.656,-307 182.916,-307"/>
<polygon fill="black" stroke="black" points="183,-310.5 193,-307 183,-303.5 183,-310.5"/>
</g>
<!-- table_ptr_keysym_stuff -->
<g id="node4" class="node"><title>table_ptr_keysym_stuff</title>
<polygon fill="none" stroke="black" points="196.5,-9 196.5,-109 367.5,-109 367.5,-9 196.5,-9"/>
<text text-anchor="middle" x="282" y="-92.4" font-family="Times Roman,serif" font-size="14.00">keysym_stuff:</text>
<polyline fill="none" stroke="black" points="196.5,-84 367.5,-84 "/>
<text text-anchor="middle" x="227" y="-67.4" font-family="Times Roman,serif" font-size="14.00">0x110</text>
<polyline fill="none" stroke="black" points="257.5,-59 257.5,-84 "/>
<text text-anchor="middle" x="312.5" y="-67.4" font-family="Times Roman,serif" font-size="14.00">table_keysym</text>
<polyline fill="none" stroke="black" points="196.5,-59 367.5,-59 "/>
<text text-anchor="middle" x="282" y="-42.4" font-family="Times Roman,serif" font-size="14.00">table_live_key_map</text>
<polyline fill="none" stroke="black" points="196.5,-34 367.5,-34 "/>
<text text-anchor="middle" x="282" y="-17.4" font-family="Times Roman,serif" font-size="14.00">table.00021a0c</text>
</g>
<!-- table_00021510&#45;&gt;table_ptr_keysym_stuff -->
<g id="edge8" class="edge"><title>table_00021510:p3&#45;&gt;table_ptr_keysym_stuff</title>
<path fill="none" stroke="black" d="M132,-282C188.534,-282 137.666,-207.706 168,-160 178.056,-144.185 191.281,-129.386 205.151,-116.252"/>
<polygon fill="black" stroke="black" points="207.908,-118.472 212.907,-109.131 203.174,-113.316 207.908,-118.472"/>
</g>
<!-- jump_table_0002164c -->
<g id="node5" class="node"><title>jump_table_0002164c</title>
<polygon fill="none" stroke="black" points="461,-359 461,-409 553,-409 553,-359 461,-359"/>
<text text-anchor="middle" x="507" y="-392.4" font-family="Times Roman,serif" font-size="14.00">jump_table</text>
<polyline fill="none" stroke="black" points="461,-384 553,-384 "/>
<text text-anchor="middle" x="507" y="-367.4" font-family="Times Roman,serif" font-size="14.00">fn_ptr...</text>
</g>
<!-- table_ptr_fn_key_complex_stuff&#45;&gt;jump_table_0002164c -->
<g id="edge14" class="edge"><title>table_ptr_fn_key_complex_stuff:p1&#45;&gt;jump_table_0002164c:p0</title>
<path fill="none" stroke="black" d="M396,-375C422.806,-375 429.143,-391.994 450.992,-396.11"/>
<polygon fill="black" stroke="black" points="450.729,-399.601 461,-397 451.349,-392.628 450.729,-399.601"/>
</g>
<!-- fn_key_map1 -->
<g id="node6" class="node"><title>fn_key_map1</title>
<polygon fill="none" stroke="black" points="458,-241 458,-341 556,-341 556,-241 458,-241"/>
<text text-anchor="middle" x="473" y="-324.4" font-family="Times Roman,serif" font-size="14.00">fn</text>
<polyline fill="none" stroke="black" points="488,-316 488,-341 "/>
<text text-anchor="middle" x="522" y="-324.4" font-family="Times Roman,serif" font-size="14.00">keysym</text>
<polyline fill="none" stroke="black" points="458,-316 556,-316 "/>
<text text-anchor="middle" x="486.5" y="-299.4" font-family="Times Roman,serif" font-size="14.00">0xc0</text>
<polyline fill="none" stroke="black" points="515,-291 515,-316 "/>
<text text-anchor="middle" x="535.5" y="-299.4" font-family="Times Roman,serif" font-size="14.00">F3</text>
<polyline fill="none" stroke="black" points="458,-291 556,-291 "/>
<text text-anchor="middle" x="486.5" y="-274.4" font-family="Times Roman,serif" font-size="14.00">0xc7</text>
<polyline fill="none" stroke="black" points="515,-266 515,-291 "/>
<text text-anchor="middle" x="535.5" y="-274.4" font-family="Times Roman,serif" font-size="14.00">F4</text>
<polyline fill="none" stroke="black" points="458,-266 556,-266 "/>
<text text-anchor="middle" x="507" y="-249.4" font-family="Times Roman,serif" font-size="14.00">...</text>
</g>
<!-- table_ptr_fn_key_complex_stuff&#45;&gt;fn_key_map1 -->
<g id="edge16" class="edge"><title>table_ptr_fn_key_complex_stuff:p2&#45;&gt;fn_key_map1:p0</title>
<path fill="none" stroke="black" d="M396,-350C421.343,-350 427.503,-334.065 447.901,-329.957"/>
<polygon fill="black" stroke="black" points="448.375,-333.428 458,-329 447.714,-326.459 448.375,-333.428"/>
</g>
<!-- table_replacements -->
<g id="node9" class="node"><title>table_replacements</title>
<polygon fill="none" stroke="black" points="432,-108 432,-208 582,-208 582,-108 432,-108"/>
<text text-anchor="middle" x="447" y="-191.4" font-family="Times Roman,serif" font-size="14.00">fn</text>
<polyline fill="none" stroke="black" points="462,-183 462,-208 "/>
<text text-anchor="middle" x="496" y="-191.4" font-family="Times Roman,serif" font-size="14.00">keysym</text>
<polyline fill="none" stroke="black" points="530,-183 530,-208 "/>
<text text-anchor="middle" x="556" y="-191.4" font-family="Times Roman,serif" font-size="14.00">meta</text>
<polyline fill="none" stroke="black" points="432,-183 582,-183 "/>
<text text-anchor="middle" x="449.5" y="-166.4" font-family="Times Roman,serif" font-size="14.00">&#39;B&#39;</text>
<polyline fill="none" stroke="black" points="467,-158 467,-183 "/>
<text text-anchor="middle" x="501" y="-166.4" font-family="Times Roman,serif" font-size="14.00">BREAK</text>
<polyline fill="none" stroke="black" points="535,-158 535,-183 "/>
<text text-anchor="middle" x="558.5" y="-166.4" font-family="Times Roman,serif" font-size="14.00">0x2</text>
<polyline fill="none" stroke="black" points="432,-158 582,-158 "/>
<text text-anchor="middle" x="449.5" y="-141.4" font-family="Times Roman,serif" font-size="14.00">&#39;S&#39;</text>
<polyline fill="none" stroke="black" points="467,-133 467,-158 "/>
<text text-anchor="middle" x="501" y="-141.4" font-family="Times Roman,serif" font-size="14.00">SYSRQ</text>
<polyline fill="none" stroke="black" points="535,-133 535,-158 "/>
<text text-anchor="middle" x="558.5" y="-141.4" font-family="Times Roman,serif" font-size="14.00">0x0</text>
<polyline fill="none" stroke="black" points="432,-133 582,-133 "/>
<text text-anchor="middle" x="507" y="-116.4" font-family="Times Roman,serif" font-size="14.00">...</text>
</g>
<!-- table_numpad&#45;&gt;table_replacements -->
<g id="edge2" class="edge"><title>table_numpad:p4&#45;&gt;table_replacements:p0</title>
<path fill="none" stroke="black" d="M371,-181C395.211,-181 402.309,-192.28 421.974,-195.277"/>
<polygon fill="black" stroke="black" points="421.774,-198.771 432,-196 422.278,-191.789 421.774,-198.771"/>
</g>
<!-- table_keysym -->
<g id="node7" class="node"><title>table_keysym</title>
<polygon fill="none" stroke="black" points="443,-54 443,-90 571,-90 571,-54 443,-54"/>
<text text-anchor="middle" x="507" y="-67.9" font-family="Times Roman,serif" font-size="14.00">keysym array ...</text>
</g>
<!-- table_ptr_keysym_stuff&#45;&gt;table_keysym -->
<g id="edge10" class="edge"><title>table_ptr_keysym_stuff:p1&#45;&gt;table_keysym:p0</title>
<path fill="none" stroke="black" d="M369,-72C389.598,-72 411.926,-72 432.498,-72"/>
<polygon fill="black" stroke="black" points="432.758,-75.5001 442.757,-72 432.757,-68.5001 432.758,-75.5001"/>
</g>
<!-- table_live_key_map -->
<g id="node8" class="node"><title>table_live_key_map</title>
<polygon fill="none" stroke="black" points="466,-0 466,-36 548,-36 548,-0 466,-0"/>
<text text-anchor="middle" x="507" y="-13.9" font-family="Times Roman,serif" font-size="14.00">bitmap ...</text>
</g>
<!-- table_ptr_keysym_stuff&#45;&gt;table_live_key_map -->
<g id="edge12" class="edge"><title>table_ptr_keysym_stuff:p2&#45;&gt;table_live_key_map</title>
<path fill="none" stroke="black" d="M368,-46C397.447,-46 429.724,-39.8864 455.757,-33.3727"/>
<polygon fill="black" stroke="black" points="456.974,-36.6728 465.772,-30.7709 455.214,-29.8977 456.974,-36.6728"/>
</g>
</g>
</svg>
