<?xml version="1.0" encoding="UTF-8" standalone="no"?>
<!DOCTYPE svg PUBLIC "-//W3C//DTD SVG 1.1//EN"
 "http://www.w3.org/Graphics/SVG/1.1/DTD/svg11.dtd">
<!-- Generated by graphviz version 2.26.3 (20100126.1600)
 -->
<!-- Title: structs Pages: 1 -->
<svg width="586pt" height="272pt"
 viewBox="0.00 0.00 586.00 272.00" xmlns="http://www.w3.org/2000/svg" xmlns:xlink="http://www.w3.org/1999/xlink">
<g id="graph1" class="graph" transform="scale(1 1) rotate(0) translate(4 268)">
<title>structs</title>
<polygon fill="white" stroke="white" points="-4,5 -4,-268 583,-268 583,5 -4,5"/>
<!-- table_00021510 -->
<g id="node1" class="node"><title>table_00021510</title>
<polygon fill="none" stroke="black" points="0,-69 0,-169 132,-169 132,-69 0,-69"/>
<text text-anchor="middle" x="66" y="-152.4" font-family="Times Roman,serif" font-size="14.00">table.00021510:</text>
<polyline fill="none" stroke="black" points="0,-144 132,-144 "/>
<text text-anchor="middle" x="66" y="-127.4" font-family="Times Roman,serif" font-size="14.00">...</text>
<polyline fill="none" stroke="black" points="0,-119 132,-119 "/>
<text text-anchor="middle" x="66" y="-102.4" font-family="Times Roman,serif" font-size="14.00">keysym_stuff</text>
<polyline fill="none" stroke="black" points="0,-94 132,-94 "/>
<text text-anchor="middle" x="66" y="-77.4" font-family="Times Roman,serif" font-size="14.00">...</text>
</g>
<!-- table_ptr_keysym_stuff -->
<g id="node2" class="node"><title>table_ptr_keysym_stuff</title>
<polygon fill="none" stroke="black" points="168.5,-56 168.5,-156 339.5,-156 339.5,-56 168.5,-56"/>
<text text-anchor="middle" x="254" y="-139.4" font-family="Times Roman,serif" font-size="14.00">keysym_stuff:</text>
<polyline fill="none" stroke="black" points="168.5,-131 339.5,-131 "/>
<text text-anchor="middle" x="199" y="-114.4" font-family="Times Roman,serif" font-size="14.00">0x110</text>
<polyline fill="none" stroke="black" points="229.5,-106 229.5,-131 "/>
<text text-anchor="middle" x="284.5" y="-114.4" font-family="Times Roman,serif" font-size="14.00">table_keysym</text>
<polyline fill="none" stroke="black" points="168.5,-106 339.5,-106 "/>
<text text-anchor="middle" x="254" y="-89.4" font-family="Times Roman,serif" font-size="14.00">table_live_key_map</text>
<polyline fill="none" stroke="black" points="168.5,-81 339.5,-81 "/>
<text text-anchor="middle" x="254" y="-64.4" font-family="Times Roman,serif" font-size="14.00">table.00021a0c</text>
</g>
<!-- table_00021510&#45;&gt;table_ptr_keysym_stuff -->
<g id="edge2" class="edge"><title>table_00021510:p1&#45;&gt;table_ptr_keysym_stuff</title>
<path fill="none" stroke="black" d="M132,-106C140.541,-106 149.418,-106 158.314,-106"/>
<polygon fill="black" stroke="black" points="158.348,-109.5 168.348,-106 158.348,-102.5 158.348,-109.5"/>
</g>
<!-- table_keysym -->
<g id="node3" class="node"><title>table_keysym</title>
<polygon fill="none" stroke="black" points="385,-239 385,-260 570,-260 570,-239 385,-239"/>
<text text-anchor="start" x="430.5" y="-246.233" font-family="Times Roman,serif" font-size="14.00">keysym array</text>
<polygon fill="none" stroke="black" points="385,-219 385,-239 433,-239 433,-219 385,-219"/>
<polygon fill="none" stroke="black" points="433,-219 433,-239 472,-239 472,-219 433,-219"/>
<text text-anchor="start" x="436" y="-225.733" font-family="Times Roman,serif" font-size="14.00">col 0</text>
<polygon fill="none" stroke="black" points="472,-219 472,-239 511,-239 511,-219 472,-219"/>
<text text-anchor="start" x="475" y="-225.733" font-family="Times Roman,serif" font-size="14.00">col 1</text>
<polygon fill="none" stroke="black" points="511,-219 511,-239 550,-239 550,-219 511,-219"/>
<text text-anchor="start" x="514" y="-225.733" font-family="Times Roman,serif" font-size="14.00">col 2</text>
<polygon fill="none" stroke="black" points="550,-219 550,-239 570,-239 570,-219 550,-219"/>
<text text-anchor="start" x="553" y="-225.733" font-family="Times Roman,serif" font-size="14.00">...</text>
<polygon fill="none" stroke="black" points="385,-199 385,-219 433,-219 433,-199 385,-199"/>
<text text-anchor="start" x="388.5" y="-205.733" font-family="Times Roman,serif" font-size="14.00">row 0</text>
<polygon fill="none" stroke="black" points="433,-199 433,-219 472,-219 472,-199 433,-199"/>
<text text-anchor="start" x="448.5" y="-205.733" font-family="Times Roman,serif" font-size="14.00">`</text>
<polygon fill="none" stroke="black" points="472,-199 472,-219 511,-219 511,-199 472,-199"/>
<text text-anchor="start" x="486.5" y="-205.733" font-family="Times Roman,serif" font-size="14.00">1</text>
<polygon fill="none" stroke="black" points="511,-199 511,-219 550,-219 550,-199 511,-199"/>
<text text-anchor="start" x="524.5" y="-205.733" font-family="Times Roman,serif" font-size="14.00">Q</text>
<polygon fill="none" stroke="black" points="550,-199 550,-219 570,-219 570,-199 550,-199"/>
<text text-anchor="start" x="553" y="-205.733" font-family="Times Roman,serif" font-size="14.00">...</text>
<polygon fill="none" stroke="black" points="385,-179 385,-199 433,-199 433,-179 385,-179"/>
<text text-anchor="start" x="388.5" y="-185.733" font-family="Times Roman,serif" font-size="14.00">row 1</text>
<polygon fill="none" stroke="black" points="433,-179 433,-199 472,-199 472,-179 433,-179"/>
<text text-anchor="start" x="443.5" y="-185.733" font-family="Times Roman,serif" font-size="14.00">F1</text>
<polygon fill="none" stroke="black" points="472,-179 472,-199 511,-199 511,-179 472,-179"/>
<text text-anchor="start" x="486.5" y="-185.733" font-family="Times Roman,serif" font-size="14.00">2</text>
<polygon fill="none" stroke="black" points="511,-179 511,-199 550,-199 550,-179 511,-179"/>
<text text-anchor="start" x="522.5" y="-185.733" font-family="Times Roman,serif" font-size="14.00">W</text>
<polygon fill="none" stroke="black" points="550,-179 550,-199 570,-199 570,-179 550,-179"/>
<text text-anchor="start" x="553" y="-185.733" font-family="Times Roman,serif" font-size="14.00">...</text>
<polygon fill="none" stroke="black" points="385,-159 385,-179 433,-179 433,-159 385,-159"/>
<text text-anchor="start" x="388.5" y="-165.733" font-family="Times Roman,serif" font-size="14.00">row 2</text>
<polygon fill="none" stroke="black" points="433,-159 433,-179 472,-179 472,-159 433,-159"/>
<text text-anchor="start" x="443.5" y="-165.733" font-family="Times Roman,serif" font-size="14.00">F2</text>
<polygon fill="none" stroke="black" points="472,-159 472,-179 511,-179 511,-159 472,-159"/>
<text text-anchor="start" x="486.5" y="-165.733" font-family="Times Roman,serif" font-size="14.00">3</text>
<polygon fill="none" stroke="black" points="511,-159 511,-179 550,-179 550,-159 511,-159"/>
<text text-anchor="start" x="525.5" y="-165.733" font-family="Times Roman,serif" font-size="14.00">E</text>
<polygon fill="none" stroke="black" points="550,-159 550,-179 570,-179 570,-159 550,-159"/>
<text text-anchor="start" x="553" y="-165.733" font-family="Times Roman,serif" font-size="14.00">...</text>
<polygon fill="none" stroke="black" points="385,-139 385,-159 570,-159 570,-139 385,-139"/>
<text text-anchor="start" x="470.5" y="-145.733" font-family="Times Roman,serif" font-size="14.00">...</text>
</g>
<!-- table_ptr_keysym_stuff&#45;&gt;table_keysym -->
<g id="edge4" class="edge"><title>table_ptr_keysym_stuff:p1&#45;&gt;table_keysym</title>
<path fill="none" stroke="black" d="M340,-119C348.638,-119 361.228,-123.832 375.326,-131.135"/>
<polygon fill="black" stroke="black" points="373.816,-134.297 384.276,-135.98 377.148,-128.141 373.816,-134.297"/>
</g>
<!-- table_live_key_map -->
<g id="node4" class="node"><title>table_live_key_map</title>
<polygon fill="none" stroke="black" points="401,-68 401,-118 553,-118 553,-68 401,-68"/>
<text text-anchor="middle" x="477" y="-101.4" font-family="Times Roman,serif" font-size="14.00">bitmap</text>
<polyline fill="none" stroke="black" points="401,-93 553,-93 "/>
<text text-anchor="middle" x="477" y="-76.4" font-family="Times Roman,serif" font-size="14.00">0000 0000 1001 ...</text>
</g>
<!-- table_ptr_keysym_stuff&#45;&gt;table_live_key_map -->
<g id="edge6" class="edge"><title>table_ptr_keysym_stuff:p2&#45;&gt;table_live_key_map</title>
<path fill="none" stroke="black" d="M340,-93C356.348,-93 373.794,-93 390.569,-93"/>
<polygon fill="black" stroke="black" points="390.912,-96.5001 400.912,-93 390.912,-89.5001 390.912,-96.5001"/>
</g>
<!-- table_00021a0c -->
<g id="node5" class="node"><title>table_00021a0c</title>
<polygon fill="none" stroke="black" points="426.5,-0 426.5,-50 527.5,-50 527.5,-0 426.5,-0"/>
<text text-anchor="middle" x="477" y="-33.4" font-family="Times Roman,serif" font-size="14.00">dragons</text>
<polyline fill="none" stroke="black" points="426.5,-25 527.5,-25 "/>
<text text-anchor="middle" x="477" y="-8.4" font-family="Times Roman,serif" font-size="14.00">a0 97 00 00</text>
</g>
<!-- table_ptr_keysym_stuff&#45;&gt;table_00021a0c -->
<g id="edge8" class="edge"><title>table_ptr_keysym_stuff:p3&#45;&gt;table_00021a0c</title>
<path fill="none" stroke="black" d="M340,-68C348.168,-68 383.881,-56.7294 416.794,-45.7285"/>
<polygon fill="black" stroke="black" points="418.066,-48.9935 426.43,-42.4897 415.836,-42.3583 418.066,-48.9935"/>
</g>
</g>
</svg>
